# xmcd
#
# Track frame offsets:
#	150
#	19177
#	35052
#	52121
#	72206
#	90442
#	111310
#	137480
#	155313
#	175736
#	196247
#	214170
#	236470
#	255742
#	272761
#	295784
#
# Disc length: 4218 seconds
#
# Revision: 1
# Processed by: cddbd v1.5PL3 Copyright (c) Steve Scherf et al.
# Submitted via: CDex 1.50Beta5
#
DISCID=e3107810
DTITLE=ribbon - MYこれ!クション ribbon BEST
DYEAR=2001
DGENRE=Pop
TTITLE0=リトル★デイト
TTITLE1=そばにいるね
TTITLE2=あのコによろしく
TTITLE3=Virgin Snow
TTITLE4=太陽の行方
TTITLE5=サイレント・サマー
TTITLE6=それは言わない約束
TTITLE7=Deep Breath
TTITLE8=太陽に火をつけて
TTITLE9=“S”ENSATIONAL WIND
TTITLE10=Do You Remember Me?
TTITLE11=Be My Diamond
TTITLE12=夜明けなんていらない
TTITLE13=わかってないね
TTITLE14=やっぱり“ribbon”はやめられない
TTITLE15=Merry Kiss Holy Smile
EXTD=
EXTT0=
EXTT1=
EXTT2=
EXTT3=
EXTT4=
EXTT5=
EXTT6=
EXTT7=
EXTT8=
EXTT9=
EXTT10=
EXTT11=
EXTT12=
EXTT13=
EXTT14=
EXTT15=
PLAYORDER=
